<?xml version="1.0" encoding="utf-8"?>
<!-- Generator: Adobe Illustrator 19.0.1, SVG Export Plug-In . SVG Version: 6.00 Build 0)  -->
<svg version="1.1" id="Layer_1" xmlns="http://www.w3.org/2000/svg" xmlns:xlink="http://www.w3.org/1999/xlink" x="0px" y="0px"
	 width="32px" height="32px" viewBox="-281 404.9 32 32" style="enable-background:new -281 404.9 32 32;" xml:space="preserve">
<style type="text/css">
	.st0{fill:none;}
	.st1{fill:none;stroke:#3DB166;stroke-width:2;}
	.st2{fill:#3DB166;}
</style>
<g id="Group_3337" transform="translate(-320 -15)">
	<g id="Ellipse_369" transform="translate(320 15)">
		<circle class="st0" cx="-265" cy="420.9" r="16"/>
		<circle class="st1" cx="-265" cy="420.9" r="15"/>
	</g>
	<path id="Path_5295" class="st2" d="M53,441.3h-5v-9.4h4.8v1h-3.7v3.1h3.4v1h-3.4v3.3H53V441.3z M62.4,441.3H61l-4.8-7.5
		c-0.1-0.2-0.2-0.4-0.3-0.6h0c0,0.4,0.1,0.9,0.1,1.3v6.8h-1.1v-9.4h1.4l4.7,7.4c0.2,0.3,0.3,0.5,0.4,0.6h0c-0.1-0.5-0.1-0.9-0.1-1.4
		v-6.6h1.1L62.4,441.3z"/>
</g>
</svg>
