<?xml version="1.0" encoding="utf-8"?>
<!-- Generator: Adobe Illustrator 19.0.1, SVG Export Plug-In . SVG Version: 6.00 Build 0)  -->
<svg version="1.1" id="Layer_1" xmlns="http://www.w3.org/2000/svg" xmlns:xlink="http://www.w3.org/1999/xlink" x="0px" y="0px"
	 width="32px" height="32px" viewBox="-463 265 32 32" style="enable-background:new -463 265 32 32;" xml:space="preserve">
<style type="text/css">
	.st0{fill:none;}
	.st1{fill:none;stroke:#3DB166;stroke-width:2;}
	.st2{fill:#3DB166;}
</style>
<g id="Ellipse_369" transform="translate(320 15)">
	<circle class="st0" cx="-767" cy="266" r="16"/>
	<circle class="st1" cx="-767" cy="266" r="15"/>
</g>
<g>
	<path class="st2" d="M-449,284h-4l-0.9,2.5h-1.3l3.6-9.5h1.1l3.6,9.5h-1.3L-449,284z M-452.6,282.9h3.2l-1.6-4.5L-452.6,282.9z"/>
	<path class="st2" d="M-442,282.6h-2.2v3.9h-1.3v-9.5h3.2c1.1,0,1.9,0.2,2.5,0.7s0.9,1.2,0.9,2.1c0,0.6-0.2,1.1-0.5,1.6
		c-0.3,0.4-0.8,0.8-1.3,1l2.2,4v0.1h-1.3L-442,282.6z M-444.2,281.6h1.9c0.6,0,1.1-0.2,1.5-0.5c0.4-0.3,0.6-0.8,0.6-1.3
		c0-0.6-0.2-1-0.5-1.4c-0.4-0.3-0.9-0.5-1.5-0.5h-1.9V281.6z"/>
</g>
</svg>
