<?xml version="1.0" encoding="utf-8"?>
<!-- Generator: Adobe Illustrator 19.0.1, SVG Export Plug-In . SVG Version: 6.00 Build 0)  -->
<svg version="1.1" id="Layer_1" xmlns="http://www.w3.org/2000/svg" xmlns:xlink="http://www.w3.org/1999/xlink" x="0px" y="0px"
	 width="32px" height="32px" viewBox="-281 404.9 32 32" style="enable-background:new -281 404.9 32 32;" xml:space="preserve">
<style type="text/css">
	.st0{fill:#3DB166;}
</style>
<path class="st0" d="M-265,404.9c-8.8,0-16,7.2-16,16s7.2,16,16,16s16-7.2,16-16S-256.2,404.9-265,404.9z M-267,426.3h-5v-9.4h4.8v1
	h-3.7v3.1h3.4v1h-3.4v3.3h3.9V426.3z M-257.6,426.3h-1.4l-4.8-7.5c-0.1-0.2-0.2-0.4-0.3-0.6h0c0,0.4,0.1,0.9,0.1,1.3v6.8h-1.1v-9.4
	h1.4l4.7,7.4c0.2,0.3,0.3,0.5,0.4,0.6h0c-0.1-0.5-0.1-0.9-0.1-1.4v-6.6h1.1V426.3z"/>
</svg>
