<?xml version="1.0" encoding="utf-8"?>
<!-- Generator: Adobe Illustrator 19.0.1, SVG Export Plug-In . SVG Version: 6.00 Build 0)  -->
<svg version="1.1" id="Layer_1" xmlns="http://www.w3.org/2000/svg" xmlns:xlink="http://www.w3.org/1999/xlink" x="0px" y="0px"
	 width="32px" height="32px" viewBox="-463 265 32 32" style="enable-background:new -463 265 32 32;" xml:space="preserve">
<style type="text/css">
	.st0{fill:none;}
	.st1{fill:#3DB166;}
</style>
<g>
	<path class="st0" d="M-439.6,281.3c0.3-0.4,0.5-1,0.5-1.6c0-0.9-0.3-1.6-0.9-2.1s-1.4-0.7-2.5-0.7h-3.2v9.5h1.3v-3.9h2.2l2.1,3.9
		h1.3v-0.1l-2.2-4C-440.4,282.1-439.9,281.7-439.6,281.3z M-442.4,281.5h-1.9v-3.6h1.9c0.7,0,1.2,0.2,1.5,0.5
		c0.4,0.3,0.5,0.8,0.5,1.4c0,0.5-0.2,1-0.6,1.3C-441.3,281.4-441.8,281.5-442.4,281.5z"/>
	<path class="st0" d="M-451.7,276.9l-3.6,9.5h1.3l0.9-2.5h4l0.9,2.5h1.3l-3.6-9.5H-451.7z M-452.7,282.9l1.6-4.5l1.6,4.5H-452.7z"/>
	<polygon class="st1" points="-452.7,282.9 -449.5,282.9 -451.1,278.4 	"/>
	<path class="st1" d="M-447,265c-8.8,0-16,7.2-16,16s7.2,16,16,16s16-7.2,16-16S-438.2,265-447,265z M-448.2,286.4l-0.9-2.5h-4
		l-0.9,2.5h-1.3l3.6-9.5h1.1l3.6,9.5H-448.2z M-438.7,286.4h-1.3l-2.1-3.9h-2.2v3.9h-1.3v-9.5h3.2c1.1,0,1.9,0.2,2.5,0.7
		s0.9,1.2,0.9,2.1c0,0.6-0.2,1.1-0.5,1.6c-0.3,0.4-0.8,0.8-1.3,1L-438.7,286.4L-438.7,286.4z"/>
	<path class="st1" d="M-440.4,279.7c0-0.6-0.2-1-0.5-1.4c-0.4-0.3-0.9-0.5-1.5-0.5h-1.9v3.6h1.9c0.6,0,1.1-0.2,1.5-0.5
		C-440.6,280.7-440.4,280.3-440.4,279.7z"/>
</g>
</svg>
